# AST/ASF file generated using VICON BodyLanguage
# -----------------------------------------------
:version 1.10
:name VICON
:units
  mass 1.0
  length 0.45
  angle deg
:documentation
   .ast/.asf automatically generated from VICON data using
   VICON BodyBuilder and BodyLanguage model FoxedUp or BRILLIANT.MOD
:root
   order TX TY TZ RX RY RZ
   axis XYZ
   position 0 0 0  
   orientation 0 0 0 
:bonedata
  begin
     id 1 
     name lhipjoint
     direction 0.623529 -0.717805 0.309788 
     length 2.23224 
     axis 0 0 0  XYZ
  end
  begin
     id 2 
     name lfemur
     direction 0.34202 -0.939693 0  
     length 7.11402  
     axis 0 0 20  XYZ
    dof rx ry rz
    limits (-160.0 20.0)
           (-70.0 70.0)
           (-60.0 70.0)
  end
  begin
     id 3 
     name ltibia
     direction 0.34202 -0.939693 0   
     length 6.78496   
     axis 0 0 20   XYZ
    dof rx
    limits (-10.0 170.0)
  end
  begin
     id 4 
     name lfoot
     direction 0.125078 -0.343648 0.930732   
     length 1.84054   
     axis -90 7.62852e-016 20   XYZ
    dof rx rz
    limits (-45.0 90.0)
           (-70.0 20.0)
  end
  begin
     id 5 
     name ltoes
     direction 1.53565e-011 -4.21893e-011 1   
     length 0.916474   
     axis -90 7.62852e-016 20   XYZ
    dof rx
    limits (-90.0 20.0)
  end
  begin
     id 6 
     name rhipjoint
     direction -0.564688 -0.757748 0.327026   
     length 2.11457  
     axis 0 0 0  XYZ 
  end
  begin
     id 7 
     name rfemur
     direction -0.34202 -0.939693 0   
     length 7.14609   
     axis 0 0 -20   XYZ
    dof rx ry rz
    limits (-160.0 20.0)
           (-70.0 70.0)
           (-70.0 60.0)
  end
  begin
     id 8 
     name rtibia
     direction -0.34202 -0.939693 0   
     length 6.78101   
     axis 0 0 -20   XYZ
    dof rx
    limits (-10.0 170.0)
 end
 begin
     id 9 
     name rfoot
     direction -0.0992671 -0.272734 0.956955   
     length 1.96168  
     axis -90 -7.62852e-016 -20   XYZ
    dof rx rz
    limits (-45.0 90.0)
           (-20.0 70.0)
  end
  begin
     id 10 
     name rtoes
     direction -1.5356e-011 -4.21891e-011 1   
     length 0.982933   
     axis -90 -7.62852e-016 -20   XYZ
    dof rx
    limits (-90.0 20.0)
  end
  begin
     id 11 
     name lowerback
     direction -0.00596953 0.998668 0.0512524   
     length 1.87557   
     axis 0 0 0   XYZ
    dof rx ry rz
    limits (-20.0 45.0)
           (-30.0 30.0)
           (-30.0 30.0)
  end
  begin
     id 12 
     name upperback
     direction 0.00584879 0.999652 0.0257308   
     length 1.87883   
     axis 0 0 0   XYZ
    dof rx ry rz
    limits (-20.0 45.0)
           (-30.0 30.0)
           (-30.0 30.0)
  end
  begin
     id 13 
     name thorax
     direction 0.010104 0.999947 0.00178881   
     length 1.87779   
     axis 0 0 0   XYZ
    dof rx ry rz
    limits (-20.0 45.0)
           (-30.0 30.0)
           (-30.0 30.0)
  end
  begin
     id 14 
     name lowerneck
     direction 0.0120771 0.995934 -0.0892773   
     length 1.40897   
     axis 0 0 0   XYZ
    dof rx ry rz
    limits (-20.0 45.0)
           (-30.0 30.0)
           (-30.0 30.0)
  end
  begin
     id 15 
     name upperneck
     direction -0.030568 0.999465 -0.0116366   
     length 1.38661   
     axis 0 0 0   XYZ
    dof rx ry rz
    limits (-20.0 45.0)
           (-30.0 30.0)
           (-30.0 30.0)
  end
  begin
     id 16
     name head
     direction -0.0170715 0.999854 -0.00104426  
     length 1.47052  
     axis 0 0 0   XYZ
    dof rx ry rz
    limits (-20.0 45.0)
           (-30.0 30.0)
           (-30.0 30.0)
  end
  begin
     id 17 
     name lclavicle
     direction 0.977763 0.206143 0.038532  
     length 3.02424  
     axis 0 0 0   XYZ
    dof ry rz
    limits (-20.0 10.0)
           (0.0 20.0)
  end
  begin
     id 18 
     name lhumerus
     direction 1 -4.48965e-011 -2.62654e-027   
     length 4.68382   
     axis 180 -30 -90   XYZ
    dof rx ry rz
    limits (-60.0 90.0)
           (-90.0 90.0)
           (-90.0 90.0)
  end
  begin
     id 19
     name lradius
     direction 1 -4.48973e-011 -1.54954e-027   
     length 2.98124   
     axis 180 -30 -90   XYZ
    dof rx
    limits (-10.0 170.0)
  end
  begin
     id 20
     name lwrist
     direction 1 -4.48959e-011 7.20928e-028   
     length 1.49062   
     axis -5.52449e-016 90 90   XYZ
    dof ry
    limits (-180.0 0.0)
 end
  begin
     id 21 
     name lhand
     direction 1 -4.48971e-011 1.44186e-027   
     length 0.707595   
     axis -9.20027e-016 90 90   XYZ
    dof rx rz
    limits (-90.0 90.0)
           (-45.0 45.0)
  end
  begin
     id 22 
     name lfingers
     direction 1 -4.48985e-011 2.88371e-027   
     length 0.570481   
     axis -1.84005e-015 90 90   XYZ
    dof rx
    limits (0.0 90.0)
  end
  begin
     id 23
     name lthumb
     direction 0.707107 -6.34929e-011 0.707107   
     length 0.819101   
     axis -90 45 2.85299e-015   XYZ
    dof rx rz
    limits (-45.0 45.0)
           (-45.0 45.0)
  end
  begin
     id 24 
     name rclavicle
     direction -0.958661 0.284411 -0.00895327   
     length 3.11921  
     axis 0 0 0   XYZ 
    dof ry rz
    limits (-10.0 20.0)
           (-20.0 0.0)
  end
  begin
     id 25 
     name rhumerus
     direction -1 -4.48963e-011 -4.22193e-027  
     length 4.75876   
     axis 180 30 90   XYZ
    dof rx ry rz
    limits (-90.0 60.0)
           (-90.0 90.0)
           (-90.0 90.0)
  end
  begin
     id 26 
     name rradius
     direction -1 -4.48968e-011 -1.07616e-027   
     length 2.93293   
     axis 180 30 90   XYZ
    dof rx
    limits (-10.0 170.0)
  end
  begin
     id 27 
     name rwrist
     direction -1 -4.48965e-011 7.20928e-028   
     length 1.46647   
     axis -5.52449e-016 -90 -90   XYZ
    dof ry
    limits (-180.0 0.0)
  end
  begin
     id 28
     name rhand
     direction -1 -4.48971e-011 1.44186e-027   
     length 0.831748   
     axis -9.20027e-016 -90 -90   XYZ
    dof rx rz
    limits (-90.0 90.0)
           (-45.0 45.0)
  end
  begin
     id 29
     name rfingers
     direction -1 -4.48961e-011 2.88371e-027   
     length 0.670577   
     axis -1.84005e-015 -90 -90   XYZ
    dof rx
    limits (0.0 90.0)
  end
  begin
     id 30
     name rthumb
     direction -0.707107 -6.34929e-011 0.707107   
     length 0.962818   
     axis -90 -45 -2.85299e-015   XYZ
    dof rx rz
    limits (-45.0 45.0)
           (-45.0 45.0)
  end
:hierarchy
  begin
    root lhipjoint rhipjoint lowerback
    lhipjoint lfemur
    lfemur ltibia
    ltibia lfoot
    lfoot ltoes
    rhipjoint rfemur
    rfemur rtibia
    rtibia rfoot
    rfoot rtoes
    lowerback upperback
    upperback thorax
    thorax lowerneck lclavicle rclavicle
    lowerneck upperneck
    upperneck head
    lclavicle lhumerus
    lhumerus lradius
    lradius lwrist
    lwrist lhand lthumb
    lhand lfingers
    rclavicle rhumerus
    rhumerus rradius
    rradius rwrist
    rwrist rhand rthumb
    rhand rfingers
  end

#!OML:ASF E:\id_vita\Project 1\Capture day 1\Session 1\Female.ASF
:FULLY-SPECIFIED
:DEGREES
523
root 6.64038 27.288 0.0165594 563.839 98.0057 549.638
lowerback -17.4807 -3.44143 -5.37789
upperback -5.18988 -3.45498 1.93794
thorax 4.64521 -1.60857 4.38369
lowerneck 7.60819 4.29492 -2.44506
upperneck -2.59566 5.70208 4.12152
head -2.35413 2.7522 1.49063
rclavicle 2.31087e-014 4.77083e-015
rhumerus 19.9279 27.072 -33.2317
rradius 120.008
rwrist -2.07072
rhand -28.7116 13.064
rfingers 7.12502
rthumb -2.07318 -16.9056
lclavicle 2.31087e-014 4.77083e-015
lhumerus 55.025 -2.24455 21.5669
lradius 33.1366
lwrist -31.2303
lhand -24.3748 9.73636
lfingers 7.12502
lthumb 2.11537 39.7056
rfemur -20.6645 13.0552 16.4989
rtibia 24.2931
rfoot -11.2685 -14.6099
rtoes -10.6823
lfemur -13.8591 -12.6663 -21.6502
ltibia 20.853
lfoot -19.4493 13.3855
ltoes 7.04839
524
root 6.64403 27.2895 0.018727 563.857 98.0065 549.684
lowerback -17.4609 -3.40632 -5.3543
upperback -5.17175 -3.41302 1.90587
thorax 4.64597 -1.58878 4.34561
lowerneck 7.50176 4.24969 -2.43826
upperneck -2.41959 5.63813 4.10715
head -2.27281 2.72361 1.49062
rclavicle -1.18774e-014 7.15625e-015
rhumerus 20.0846 26.8229 -33.1541
rradius 119.755
rwrist -2.10816
rhand -28.9642 13.2767
rfingers 7.12502
rthumb -2.3171 -16.6905
lclavicle -1.18774e-014 7.15625e-015
lhumerus 55.0589 -2.27791 21.4754
lradius 33.2045
lwrist -30.8979
lhand -24.2095 9.73507
lfingers 7.12502
lthumb 2.27505 39.7027
rfemur -20.6178 13.0417 16.4988
rtibia 24.3023
rfoot -11.4078 -14.5346
rtoes -9.85618
lfemur -13.795 -12.6388 -21.6684
ltibia 20.841
lfoot -19.4304 13.4025
ltoes 6.79906
525
root 6.64915 27.2897 0.0222252 563.974 97.933 549.851
lowerback -17.3754 -3.36338 -5.36029
upperback -5.1069 -3.36182 1.86924
thorax 4.66217 -1.56752 4.32273
lowerneck 7.08777 4.19834 -2.50814
upperneck -2.2145 5.57108 4.2587
head -2.13559 2.69353 1.56336
rclavicle 1.13804e-014 1.86858e-014
rhumerus 20.2924 26.5164 -32.8387
rradius 119.544
rwrist -2.15968
rhand -28.7427 13.2399
rfingers 7.12502
rthumb -2.10324 -16.7295
lclavicle 1.13804e-014 1.86858e-014
lhumerus 55.1357 -2.44054 21.0817
lradius 33.3169
lwrist -30.7466
lhand -23.7708 9.82724
lfingers 7.12502
lthumb 2.69871 39.7899
rfemur -20.5358 13.014 16.5315
rtibia 24.3157
rfoot -11.3767 -14.5922
rtoes -10.0556
lfemur -13.7239 -12.6262 -21.6739
ltibia 20.8384
lfoot -19.4691 13.3197
ltoes 6.74144
526
root 6.65389 27.2889 0.0257636 564.296 97.818 550.173
lowerback -17.3397 -3.3556 -5.39375
upperback -5.09763 -3.34738 1.85344
thorax 4.65217 -1.56079 4.32908
lowerneck 7.0582 4.23449 -2.51017
upperneck -2.20136 5.62137 4.29981
head -2.12943 2.71808 1.57534
rclavicle 3.762e-014 1.11319e-014
rhumerus 20.4961 26.3432 -32.3786
rradius 119.514
rwrist -2.14989
rhand -29.2872 13.3457
rfingers 7.12502
rthumb -2.6291 -16.6178
lclavicle 3.762e-014 1.11319e-014
lhumerus 55.2214 -2.37759 21.067
lradius 33.4233
lwrist -30.1039
lhand -23.75 10.4505
lfingers 7.12502
lthumb 2.71875 40.413
rfemur -20.4846 13.0297 16.5293
rtibia 24.2915
rfoot -11.3156 -14.7152
rtoes -10.3787
lfemur -13.7475 -12.4273 -21.707
ltibia 20.8821
lfoot -19.4921 13.1844
ltoes 6.04718
527
root 6.65821 27.2859 0.0285426 564.396 97.7494 550.236
lowerback -17.3961 -3.33889 -5.3927
upperback -5.10084 -3.32064 1.84509
thorax 4.67504 -1.54746 4.32376
lowerneck 7.13132 4.19299 -2.54859
upperneck -2.23473 5.5633 4.31817
head -2.15383 2.68793 1.5893
rclavicle -1.81143e-014 -4.37326e-015
rhumerus 20.7619 26.1949 -32.0365
rradius 119.407
rwrist -2.13999
rhand -31.1905 14.4875
rfingers 7.12502
rthumb -4.46709 -15.4454
lclavicle -1.81143e-014 -4.37326e-015
lhumerus 55.1296 -2.52457 20.5864
lradius 33.6357
lwrist -29.7313
lhand -23.6867 10.3921
lfingers 7.12502
lthumb 2.7799 40.3537
rfemur -20.4602 12.8807 16.583
rtibia 24.2373
rfoot -11.2399 -14.7237
rtoes -11.1751
lfemur -13.8074 -12.2694 -21.7092
ltibia 20.9455
lfoot -19.4701 13.143
ltoes 5.32188
528
root 6.66392 27.2871 0.0324567 564.145 97.6929 549.925
lowerback -17.1479 -3.29312 -5.32823
upperback -5.32249 -3.27751 1.83152
thorax 4.29746 -1.50762 4.29502
lowerneck 7.29302 4.15734 -2.53249
upperneck -2.09708 5.51279 4.35286
head -2.13661 2.66156 1.59792
rclavicle -2.95941e-014 -4.37326e-015
rhumerus 20.8121 26.2975 -31.9389
rradius 119.202
rwrist -2.02371
rhand -28.0862 11.9516
rfingers 7.12502
rthumb -1.46918 -18.0231
lclavicle -2.95941e-014 -4.37326e-015
lhumerus 55.0232 -2.89009 20.2884
lradius 33.7942
lwrist -29.277
lhand -23.3017 10.1576
lfingers 7.12502
lthumb 3.1517 40.114
rfemur -20.4799 12.804 16.6809
rtibia 24.2043
rfoot -11.1383 -14.7698
rtoes -11.7578
lfemur -13.8799 -12.3213 -21.6114
ltibia 20.9748
lfoot -19.4873 13.1162
ltoes 5.51312
529
root 6.66881 27.291 0.0367945 564.17 97.5932 549.883
lowerback -17.5688 -3.3299 -5.36359
upperback -5.07197 -3.30328 1.85789
thorax 4.7949 -1.54164 4.31863
lowerneck 7.47405 4.20764 -2.54071
upperneck -2.51124 5.58669 4.31614
head -2.3088 2.69299 1.57912
rclavicle -1.75924e-014 -1.39149e-014
rhumerus 21.4948 25.9023 -31.589
rradius 118.92
rwrist -2.16251
rhand -28.6982 13.131
rfingers 7.12502
rthumb -2.06027 -16.8388
lclavicle -1.75924e-014 -1.39149e-014
lhumerus 55.1542 -2.55439 20.2072
lradius 33.7907
lwrist -29.1797
lhand -22.5199 10.1151
lfingers 7.12502
lthumb 3.90669 40.0591
rfemur -20.5207 12.9395 16.7009
rtibia 24.1903
rfoot -11.0882 -14.9346
rtoes -11.4408
lfemur -13.9607 -12.3704 -21.5256
ltibia 20.9711
lfoot -19.5284 13.0347
ltoes 5.71591
530
root 6.67287 27.2891 0.040645 564.866 97.4333 550.588
lowerback -17.1263 -3.34916 -5.49243
upperback -5.37965 -3.32498 1.88851
thorax 4.24194 -1.5268 4.44106
lowerneck 7.47333 4.2209 -2.54336
upperneck -1.98218 5.5898 4.33321
head -2.13379 2.69982 1.5873
rclavicle 3.29237e-014 1.15295e-014
rhumerus 21.5297 26.16 -31.2978
rradius 118.788
rwrist -2.4687
rhand -28.3061 12.3038
rfingers 7.12502
rthumb -1.68153 -17.6694
lclavicle 3.29237e-014 1.15295e-014
lhumerus 55.0726 -2.97115 20.3816
lradius 33.7833
lwrist -29.3835
lhand -22.8841 10.3686
lfingers 7.12502
lthumb 3.55501 40.3187
rfemur -20.465 12.9752 16.67
rtibia 24.1884
rfoot -11.0264 -15.1096
rtoes -11.0062
lfemur -13.9222 -12.4986 -21.5212
ltibia 20.9357
lfoot -19.6479 12.9035
ltoes 6.12879
531
root 6.679 27.2867 0.0436941 565.113 97.3617 550.837
lowerback -17.5602 -3.29702 -5.39746
upperback -5.10508 -3.24568 1.75162
thorax 4.74379 -1.51002 4.23797
lowerneck 7.33806 4.0677 -2.52637
upperneck -2.23779 5.39897 4.38454
head -2.18829 2.60213 1.61114
rclavicle 1.52567e-014 -1.37161e-014
rhumerus 21.9061 25.6577 -31.1743
rradius 118.513
rwrist -2.40454
rhand -29.4547 12.8063
rfingers 7.12502
rthumb -2.79084 -17.1552
lclavicle 1.52567e-014 -1.37161e-014
lhumerus 55.4705 -2.76167 20.3784
lradius 33.7439
lwrist -29.4169
lhand -23.1663 10.5256
lfingers 7.12502
lthumb 3.28253 40.4801
rfemur -20.4554 12.9787 16.6715
rtibia 24.2285
rfoot -11.0202 -15.2118
rtoes -10.7446
lfemur -13.856 -12.6635 -21.4995
ltibia 20.8727
lfoot -19.7427 12.897
ltoes 6.55852
532
root 6.68483 27.2887 0.0466108 564.756 97.3191 550.424
lowerback -17.3129 -3.2502 -5.41801
upperback -5.29621 -3.19331 1.82357
thorax 4.40717 -1.46832 4.35039
lowerneck 7.44914 4.0719 -2.5117
upperneck -2.19665 5.40166 4.35436
head -2.19327 2.60334 1.59696
rclavicle 2.38045e-014 -2.40529e-014
rhumerus 21.9299 25.5828 -30.9811
rradius 118.207
rwrist -2.44719
rhand -29.5999 13.2795
rfingers 7.12502
rthumb -2.9311 -16.6801
lclavicle 2.38045e-014 -2.40529e-014
lhumerus 55.4901 -2.91294 20.6127
lradius 33.7011
lwrist -29.6758
lhand -22.8727 10.0751
lfingers 7.12502
lthumb 3.56607 40.0251
rfemur -20.5215 12.9655 16.7277
rtibia 24.2738
rfoot -11.2057 -15.1704
rtoes -10.1879
lfemur -13.8765 -12.7445 -21.411
ltibia 20.8496
lfoot -19.7742 12.9621
ltoes 6.56357
533
root 6.68798 27.2892 0.0501739 564.883 97.1667 550.514
lowerback -17.3961 -3.26159 -5.40304
upperback -5.17497 -3.20935 1.81071
thorax 4.58137 -1.48568 4.3194
lowerneck 7.26362 4.05835 -2.44477
upperneck -2.36368 5.39641 4.33467
head -2.21144 2.60084 1.5814
rclavicle -9.61621e-015 8.15017e-015
rhumerus 22.2278 25.1742 -30.712
rradius 117.788
rwrist -2.51831
rhand -30.1235 13.8345
rfingers 7.12502
rthumb -3.43676 -16.1176
lclavicle -9.61621e-015 8.15017e-015
lhumerus 55.697 -2.71989 20.6147
lradius 33.6498
lwrist -29.717
lhand -22.2844 10.0286
lfingers 7.12502
lthumb 4.1341 39.9682
rfemur -20.5151 12.7617 16.797
rtibia 24.2675
rfoot -11.3892 -15.0502
rtoes -9.69119
lfemur -13.9364 -12.8003 -21.3339
ltibia 20.9016
lfoot -19.8499 12.866
ltoes 6.68375
